<svg xmlns="http://www.w3.org/2000/svg" width="175" height="60" viewBox="0 0 175 60" fill="none"><path d="M42.5025 45.4528L22.2071 59.2519C22.0924 59.3307 21.9395 59.3307 21.8248 59.2519L0.144752 44.3194C0.0546234 44.2569 0 44.1536 0 44.0422V35.7714C0 35.5023 0.300429 35.342 0.524385 35.4915L21.8221 49.7037C21.9368 49.7798 22.0897 49.7798 22.2044 49.6982L28.9613 44.9772C29.1552 44.8413 29.1525 44.5532 28.9531 44.4227L0.150214 25.4486C0.0546234 25.3861 0 25.2801 0 25.1687V16.7865C0 16.5174 0.30316 16.357 0.527116 16.5092L42.5025 44.8983C42.6991 45.0315 42.6991 45.3196 42.5025 45.4528Z" fill="#FFBF00"></path><path d="M20.8066 0.0566437C20.9213 -0.0192438 21.0739 -0.0191557 21.1885 0.0595734H21.1855L42.6094 14.9375C42.6994 15 42.7539 15.1033 42.7539 15.2119V23.4805C42.7536 23.7493 42.4504 23.9099 42.2266 23.7578L21.1943 9.59375C21.0769 9.51493 20.9184 9.51829 20.8037 9.60254L14.6963 13.8779C14.511 14.0139 14.5168 14.2935 14.7051 14.4238L42.6064 33.6484C42.6963 33.7109 42.7508 33.8136 42.751 33.9248V41.9512C42.751 42.2203 42.4476 42.3807 42.2236 42.2285L0.5 14.2041C0.300625 14.0709 0.300625 13.7797 0.5 13.6465L5.72461 10.1484C5.7232 10.136 5.72168 10.1232 5.72168 10.1104V1.55176C5.72168 1.36564 5.87352 1.21487 6.06055 1.21485H12.3857C12.5728 1.21485 12.7246 1.36563 12.7246 1.55176V5.46485L20.8066 0.0566437Z" fill="#102564"></path><path d="M165.302 42.2777H171.301C171.246 40.9416 170.374 39.6327 168.301 39.6327C166.42 39.6327 165.383 41.0506 165.302 42.2777ZM171.655 45.7682L174.682 46.6681C174 48.9859 171.873 50.922 168.574 50.922C164.892 50.922 161.647 48.2769 161.647 43.7503C161.647 39.469 164.811 36.6876 168.247 36.6876C172.391 36.6876 174.873 39.3327 174.873 43.6412C174.873 44.1593 174.818 44.7047 174.818 44.7592H165.22C165.302 46.5317 166.801 47.8133 168.601 47.8133C170.292 47.8133 171.219 46.968 171.655 45.7682Z" fill="#102564"></path><path d="M145.977 51.2492L149.249 50.3766C149.494 51.8492 150.667 52.9127 152.385 52.9127C154.675 52.9127 155.957 51.7674 155.957 49.1768V48.1951C155.412 49.0677 154.157 49.9131 152.221 49.9131C148.649 49.9131 145.977 47.1589 145.977 43.3958C145.977 39.8508 148.54 36.8512 152.221 36.8512C154.348 36.8512 155.575 37.7784 156.039 38.6782V37.0966H159.529V49.0677C159.529 52.749 157.539 56.1031 152.494 56.1031C148.813 56.1031 146.358 53.8125 145.977 51.2492ZM152.848 46.8044C154.703 46.8044 156.012 45.4682 156.012 43.3958C156.012 41.3233 154.594 40.0144 152.848 40.0144C151.049 40.0144 149.631 41.3233 149.631 43.3958C149.631 45.4955 150.967 46.8044 152.848 46.8044Z" fill="#102564"></path><path d="M132.012 46.8589C132.012 44.4593 133.784 43.1231 136.02 42.7959L139.32 42.305C140.083 42.1959 140.329 41.8142 140.329 41.3506C140.329 40.3962 139.592 39.6054 138.065 39.6054C136.484 39.6054 135.611 40.6143 135.502 41.7869L132.284 41.1052C132.503 39.0055 134.439 36.6876 138.038 36.6876C142.292 36.6876 143.874 39.0873 143.874 41.7869V48.386C143.874 49.095 143.956 50.0494 144.037 50.513H140.711C140.629 50.1585 140.574 49.4222 140.574 48.9041C139.892 49.9676 138.611 50.8947 136.62 50.8947C133.757 50.8947 132.012 48.9586 132.012 46.8589ZM137.384 48.1951C138.911 48.1951 140.329 47.4589 140.329 45.0865V44.4865L137.302 44.9501C136.375 45.0865 135.638 45.6046 135.638 46.6408C135.638 47.4316 136.211 48.1951 137.384 48.1951Z" fill="#102564"></path><path d="M116.283 51.2492L119.555 50.3766C119.801 51.8492 120.973 52.9127 122.691 52.9127C124.982 52.9127 126.264 51.7674 126.264 49.1768V48.1951C125.718 49.0677 124.464 49.9131 122.528 49.9131C118.956 49.9131 116.283 47.1589 116.283 43.3958C116.283 39.8508 118.846 36.8512 122.528 36.8512C124.655 36.8512 125.882 37.7784 126.345 38.6782V37.0966H129.836V49.0677C129.836 52.749 127.845 56.1031 122.8 56.1031C119.119 56.1031 116.665 53.8125 116.283 51.2492ZM123.155 46.8044C125.009 46.8044 126.318 45.4682 126.318 43.3958C126.318 41.3233 124.9 40.0144 123.155 40.0144C121.355 40.0144 119.937 41.3233 119.937 43.3958C119.937 45.4955 121.273 46.8044 123.155 46.8044Z" fill="#102564"></path><path d="M112.136 33.0881V37.0966H114.835V40.3144H112.136V45.9318C112.136 47.1044 112.681 47.4861 113.717 47.4861C114.154 47.4861 114.645 47.4316 114.835 47.3771V50.3766C114.508 50.513 113.854 50.7039 112.79 50.7039C110.172 50.7039 108.536 49.1495 108.536 46.559V40.3144H106.109V37.0966H106.791C108.209 37.0966 108.864 36.1695 108.864 34.9697V33.0881H112.136Z" fill="#102564"></path><path d="M105.125 37.0421V40.6961C104.716 40.6143 104.361 40.5871 104.034 40.5871C102.18 40.5871 100.571 41.4869 100.571 44.3775V50.513H96.9443V37.0966H100.462V39.0873C101.28 37.3148 103.134 36.9876 104.28 36.9876C104.58 36.9876 104.852 37.0148 105.125 37.0421Z" fill="#102564"></path><path d="M87.5916 47.6225C89.364 47.6225 91.0002 46.3408 91.0002 43.8048C91.0002 41.2688 89.364 39.9872 87.5916 39.9872C85.8191 39.9872 84.1829 41.2688 84.1829 43.8048C84.1829 46.3136 85.8191 47.6225 87.5916 47.6225ZM87.5916 36.6876C91.6001 36.6876 94.6269 39.6599 94.6269 43.8048C94.6269 47.9224 91.6001 50.922 87.5916 50.922C83.583 50.922 80.5562 47.9224 80.5562 43.8048C80.5562 39.6599 83.583 36.6876 87.5916 36.6876Z" fill="#102564"></path><path d="M78.0424 50.513H74.3338V36.9603L68.771 50.513H65.635L60.0722 37.0694V50.513H56.4727V31.1793H61.4356L67.2439 45.141L72.9158 31.1793H78.0424V50.513Z" fill="#102564"></path><path d="M137.959 32.8032H134.114L137.277 25.8223L131.578 14.0966H135.641L139.213 21.9501L142.512 14.0966H146.385L137.959 32.8032Z" fill="#102564"></path><path d="M127.795 10.0881V14.0966H130.495V17.3144H127.795V22.9318C127.795 24.1044 128.34 24.4861 129.377 24.4861C129.813 24.4861 130.304 24.4316 130.495 24.3771V27.3766C130.167 27.513 129.513 27.7039 128.449 27.7039C125.832 27.7039 124.195 26.1495 124.195 23.559V17.3144H121.769V14.0966H122.45C123.868 14.0966 124.523 13.1695 124.523 11.9697V10.0881H127.795Z" fill="#102564"></path><path d="M111.441 19.2777H117.44C117.386 17.9416 116.513 16.6327 114.441 16.6327C112.559 16.6327 111.523 18.0506 111.441 19.2777ZM117.795 22.7682L120.822 23.6681C120.14 25.9859 118.013 27.922 114.713 27.922C111.032 27.922 107.787 25.2769 107.787 20.7503C107.787 16.469 110.95 13.6876 114.386 13.6876C118.531 13.6876 121.013 16.3327 121.013 20.6412C121.013 21.1593 120.958 21.7047 120.958 21.7592H111.359C111.441 23.5317 112.941 24.8134 114.741 24.8134C116.431 24.8134 117.359 23.968 117.795 22.7682Z" fill="#102564"></path><path d="M105.459 27.513H101.832V14.0966H105.459V27.513ZM101.396 9.70634C101.396 8.45196 102.404 7.44301 103.632 7.44301C104.886 7.44301 105.868 8.45196 105.868 9.70634C105.868 10.9062 104.886 11.9151 103.632 11.9151C102.404 11.9151 101.396 10.9062 101.396 9.70634Z" fill="#102564"></path><path d="M93.4109 17.0417C91.5566 17.0417 90.0023 18.3779 90.0023 20.8048C90.0023 23.2317 91.5839 24.5952 93.4382 24.5952C95.2924 24.5952 96.2196 23.3681 96.5196 22.3319L99.71 23.3954C99.1101 25.6314 97.0104 27.922 93.4382 27.922C89.4842 27.922 86.3755 24.9224 86.3755 20.8048C86.3755 16.6599 89.4296 13.6876 93.3291 13.6876C96.9831 13.6876 99.0556 15.9509 99.6282 18.2143L96.3832 19.305C96.056 18.187 95.2106 17.0417 93.4109 17.0417Z" fill="#102564"></path><path d="M78.0315 24.6225C79.804 24.6225 81.4401 23.3408 81.4401 20.8048C81.4401 18.2688 79.804 16.9872 78.0315 16.9872C76.259 16.9872 74.6229 18.2688 74.6229 20.8048C74.6229 23.3136 76.259 24.6225 78.0315 24.6225ZM78.0315 13.6876C82.04 13.6876 85.0669 16.6599 85.0669 20.8048C85.0669 24.9224 82.04 27.922 78.0315 27.922C74.023 27.922 70.9961 24.9224 70.9961 20.8048C70.9961 16.6599 74.023 13.6876 78.0315 13.6876Z" fill="#102564"></path><path d="M69.4796 12.7877L66.0982 13.824C65.9073 12.7605 65.0347 11.0971 62.5805 11.0971C60.7535 11.0971 59.5537 12.2696 59.5537 13.5513C59.5537 14.6148 60.2354 15.4601 61.6534 15.7328L64.353 16.2509C67.8707 16.9326 69.7523 19.2232 69.7523 21.9501C69.7523 24.9224 67.2708 27.922 62.7714 27.922C57.6448 27.922 55.3815 24.6225 55.0815 21.8683L58.572 20.9412C58.7356 22.85 60.0718 24.5679 62.7987 24.5679C64.8166 24.5679 65.9346 23.559 65.9346 22.1955C65.9346 21.0775 65.0893 20.2049 63.5895 19.9049L60.8898 19.3596C57.8084 18.7324 55.8178 16.7417 55.8178 13.824C55.8178 10.3881 58.8992 7.77024 62.5532 7.77024C67.2435 7.77024 69.0433 10.6062 69.4796 12.7877Z" fill="#102564"></path></svg>